<?xml version="1.0" encoding="utf-8"?>
<!-- Generator: Adobe Illustrator 24.1.0, SVG Export Plug-In . SVG Version: 6.00 Build 0)  -->
<svg version="1.1" id="Capa_1" xmlns="http://www.w3.org/2000/svg" xmlns:xlink="http://www.w3.org/1999/xlink" x="0px" y="0px"
	 viewBox="0 0 512 512" style="enable-background:new 0 0 512 512;" xml:space="preserve">
<g>
	<path d="M432,256c0-40.6-15.2-77.8-40.3-106c0-0.2-0.1-0.4-0.1-0.5l-20.4-61.1c-2-5.9-6.1-10.6-11.2-13.4V24c0-13.2-10.8-24-24-24
		H208c-13.2,0-24,10.8-24,24v51c-5.2,2.8-9.3,7.6-11.2,13.4l-20.4,61.1c-0.1,0.2-0.1,0.4-0.1,0.5c-14.7,16.6-26.1,36.3-32.9,58H104
		c-13.2,0-24,10.8-24,24v48c0,13.2,10.8,24,24,24h15.4c6.8,21.7,18.2,41.4,32.9,58c0,0.2,0.1,0.4,0.1,0.5l20.4,61.1
		c2,5.9,6.1,10.6,11.2,13.4v51c0,13.2,10.8,24,24,24h128c13.2,0,24-10.8,24-24v-51c5.2-2.8,9.3-7.6,11.2-13.4l20.4-61.1
		c0.1-0.2,0.1-0.4,0.1-0.5C416.8,333.8,432,296.6,432,256z M187.9,93.5c1.1-3.3,4.1-5.5,7.6-5.5H296c4.4,0,8-3.6,8-8s-3.6-8-8-8h-96
		V24c0-4.4,3.6-8,8-8h128c4.4,0,8,3.6,8,8v48h-16c-4.4,0-8,3.6-8,8s3.6,8,8,8h20.5c3.4,0,6.5,2.2,7.6,5.5l11.4,34.2
		C340.8,107.8,307.7,96,272,96s-68.8,11.8-95.5,31.7L187.9,93.5z M104,288c-4.4,0-8-3.6-8-8v-48c0-4.4,3.6-8,8-8h11.2
		c-2.1,10.3-3.2,21-3.2,32c0,11,1.1,21.7,3.2,32H104z M272,112c79.4,0,144,64.6,144,144s-64.6,144-144,144s-144-64.6-144-144
		S192.6,112,272,112z M356.1,418.5c-1.1,3.3-4.1,5.5-7.6,5.5H328c-4.4,0-8,3.6-8,8s3.6,8,8,8h16v48c0,4.4-3.6,8-8,8H208
		c-4.4,0-8-3.6-8-8v-48h96c4.4,0,8-3.6,8-8s-3.6-8-8-8H195.5c-3.4,0-6.5-2.2-7.6-5.5l-11.4-34.2c26.7,19.9,59.7,31.7,95.5,31.7
		c35.7,0,68.8-11.8,95.5-31.7L356.1,418.5z"/>
	<path d="M272,384c70.6,0,128-57.4,128-128c0-28-8.9-54.5-25.6-76.8c-2.7-3.5-7.7-4.2-11.2-1.6c-3.5,2.7-4.2,7.7-1.6,11.2
		c13,17.4,20.6,37.7,22.1,59.2H376c-4.4,0-8,3.6-8,8c0,4.4,3.6,8,8,8h7.7c-3.9,55.4-48.3,99.8-103.7,103.7V360c0-4.4-3.6-8-8-8
		s-8,3.6-8,8v7.7c-55.4-3.9-99.8-48.3-103.7-103.7h7.7c4.4,0,8-3.6,8-8c0-4.4-3.6-8-8-8h-7.7c3.9-55.4,48.3-99.8,103.7-103.7v7.7
		c0,4.4,3.6,8,8,8s8-3.6,8-8v-7.7c21.5,1.5,41.8,9.1,59.2,22.1c3.5,2.7,8.5,1.9,11.2-1.6c2.7-3.5,1.9-8.5-1.6-11.2
		C326.5,136.9,300,128,272,128c-70.6,0-128,57.4-128,128S201.4,384,272,384z"/>
	<path d="M272,176c-4.4,0-8,3.6-8,8v72c0,0.1,0,0.1,0,0.2c0,0.2,0,0.3,0,0.5c0,0.1,0,0.2,0,0.3c0,0.1,0,0.3,0.1,0.4
		c0,0.1,0,0.2,0.1,0.4c0,0.1,0.1,0.3,0.1,0.4c0,0.1,0.1,0.3,0.1,0.4c0,0.1,0.1,0.2,0.1,0.3c0.1,0.1,0.1,0.3,0.2,0.4
		c0,0.1,0.1,0.2,0.1,0.3c0.1,0.1,0.2,0.3,0.2,0.4c0,0.1,0.1,0.1,0.1,0.2l40,64c1.5,2.4,4.1,3.8,6.8,3.8c1.4,0,2.9-0.4,4.2-1.2
		c3.7-2.3,4.9-7.3,2.5-11L280,253.7V184C280,179.6,276.4,176,272,176z"/>
</g>
</svg>
